<?xml version="1.0" encoding="UTF-8"?>
<svg version="1.1" xmlns="http://www.w3.org/2000/svg" width="500" height="500">
<path d="M0 0 C19.64513008 1.00199272 41.3064331 9.59562353 56.25 22.3125 C59.20788981 24.48296522 60.38730811 25.04808468 64.0859375 24.7578125 C66.55848907 24.18470452 69.02173825 23.57060831 71.4765625 22.92578125 C76.94987691 21.63419885 82.39870039 21.62238908 88 21.625 C89.03962891 21.62290527 90.07925781 21.62081055 91.15039062 21.61865234 C97.18897523 21.69971357 102.32918197 22.41087336 108.125 24.0625 C112.4892675 25.10138014 114.31180351 25.30327303 118.45703125 23.4765625 C121.49704847 21.59015563 124.328393 19.43458346 127.18457031 17.28417969 C140.74776336 7.68998988 159.42548242 0.80317046 176 0 C176.99 0.495 176.99 0.495 178 1 C184.0152858 19.10104351 181.96428332 38.55890459 173.625 55.5 C171.52362989 59.58344846 169.48012797 62.64487203 166.25 65.875 C164.61085474 67.60798218 164.61085474 67.60798218 164 70 C164.86806775 74.35342517 166.18384505 78.26836433 167.79296875 82.390625 C169.33972196 87.01586762 169.33972196 87.01586762 168 90 C165.99731445 91.30517578 165.99731445 91.30517578 163.36328125 92.4453125 C161.91852417 93.09306641 161.91852417 93.09306641 160.44458008 93.75390625 C159.41099365 94.20636719 158.37740723 94.65882813 157.3125 95.125 C142.45712633 101.93794629 130.6001107 110.53945749 119 122 C118.08605469 122.88945312 117.17210937 123.77890625 116.23046875 124.6953125 C109.73749263 131.36477867 104.84729835 138.55437045 100.14648438 146.58984375 C95.61130096 154.20046792 95.61130096 154.20046792 91 156 C88.90234375 156.21484375 88.90234375 156.21484375 86.9375 155.9375 C86.28652344 155.86402344 85.63554687 155.79054688 84.96484375 155.71484375 C79.57065625 153.75234611 77.07303079 148.04143001 74.3125 143.375 C70.16451861 136.54380279 65.5385606 130.77561961 60 125 C59.03397599 123.81874785 58.0749471 122.63171921 57.125 121.4375 C46.0779707 108.54929915 30.08171079 100.20487669 15 93 C13.3730905 92.19133028 11.74770807 91.37956779 10.125 90.5625 C9.09375 90.046875 8.0625 89.53125 7 89 C7.45380895 87.10307857 7.91324992 85.20750405 8.375 83.3125 C8.75785156 81.72888672 8.75785156 81.72888672 9.1484375 80.11328125 C10 77 10 77 11.1640625 74.35546875 C12.15769328 71.55565864 12.15828844 70.71283344 11 68 C9.61973634 65.83834741 8.20705826 63.73286005 6.75 61.625 C-3.64230758 45.9490613 -6.45476401 28.4205491 -4 10 C-2.13080895 2.13080895 -2.13080895 2.13080895 0 0 Z M5 11 C0.38540289 23.44095382 3.34106175 37.05464623 8.23828125 49.02734375 C9.4014951 51.4221958 10.63638504 53.71432159 12 56 C12.37511719 56.639375 12.75023437 57.27875 13.13671875 57.9375 C14.2496983 59.78430414 14.2496983 59.78430414 16 62 C16.66 62 17.32 62 18 62 C19.57675047 60.02105186 19.57675047 60.02105186 21.1875 57.5 C26.03328062 50.39218485 31.21095068 44.2987702 38 39 C34.42046344 28.50375476 23.55235125 19.45701715 13.95703125 14.39453125 C9.65033534 12.08666481 9.65033534 12.08666481 5 11 Z M148 25 C141.64108797 30.9233783 141.64108797 30.9233783 139.0390625 38.6328125 C140.15680539 41.38627668 141.21265633 42.39867576 143.5625 44.1875 C147.72704146 47.59689121 150.88574574 51.39762096 154.140625 55.66796875 C155.96131951 57.95148686 157.89742228 59.97650153 160 62 C167.21965759 52.97022653 173.11502012 41.41805415 173.1328125 29.59375 C173.13410156 28.76746094 173.13539063 27.94117188 173.13671875 27.08984375 C173.13091797 25.80787109 173.13091797 25.80787109 173.125 24.5 C173.12886719 23.64535156 173.13273437 22.79070312 173.13671875 21.91015625 C173.13542969 21.08386719 173.13414062 20.25757813 173.1328125 19.40625 C173.13112061 18.28186523 173.13112061 18.28186523 173.12939453 17.13476562 C172.99857747 14.97653095 172.59166841 13.07524609 172 11 C163.55516472 11 153.83159054 19.47134923 148 25 Z M40 82 C46.71787215 89.91749218 56.90254943 94.98817399 67 97 C67.99 97 68.98 97 70 97 C68.60414816 91.72678195 65.34481171 88.99136838 61 86 C54.53146191 82.32598385 47.27409177 82.32156808 40 82 Z M109 92 C108.34 92.66 107.68 93.32 107 94 C107 94.99 107 95.98 107 97 C117.72094347 94.9717134 128.46614058 91.24015875 136 83 C134.91742446 81.69325115 134.91742446 81.69325115 132.3046875 81.87109375 C122.58955797 82.2500527 115.65731783 84.91593103 109 92 Z " fill="#040404" transform="translate(162,143)"/>
<path d="M0 0 C29.17985183 6.38202607 58.81563728 25.39026982 75.18359375 50.56640625 C76.1949474 52.2966142 77.18588453 54.03905034 78.1484375 55.796875 C79.19677541 57.87846962 79.19677541 57.87846962 81.33984375 58.73046875 C81.58863281 58.02019531 81.83742188 57.30992187 82.09375 56.578125 C83.48029123 53.40950884 85.20922812 50.93700998 87.27734375 48.16796875 C87.96699219 47.23855469 88.65664063 46.30914062 89.3671875 45.3515625 C90.34365234 44.05412109 90.34365234 44.05412109 91.33984375 42.73046875 C92.14615234 41.57224609 92.14615234 41.57224609 92.96875 40.390625 C93.64744141 39.56884766 93.64744141 39.56884766 94.33984375 38.73046875 C94.99984375 38.73046875 95.65984375 38.73046875 96.33984375 38.73046875 C96.56671875 38.16972656 96.79359375 37.60898437 97.02734375 37.03125 C108.29998473 17.27057875 139.32899707 5.84210233 160.0078125 0.17578125 C163.46793043 -0.48494479 166.19478328 -0.91008763 169.35351562 0.85693359 C169.99869141 1.37980957 170.64386719 1.90268555 171.30859375 2.44140625 C172.03900879 3.02245117 172.76942383 3.60349609 173.52197266 4.20214844 C174.28687012 4.83024414 175.05176758 5.45833984 175.83984375 6.10546875 C177.44095411 7.38988674 179.0425204 8.67373658 180.64453125 9.95703125 C181.4344043 10.59543945 182.22427734 11.23384766 183.03808594 11.89160156 C185.13778489 13.56904456 187.26068854 15.20350382 189.41015625 16.81640625 C190.01537109 17.27096191 190.62058594 17.72551758 191.24414062 18.19384766 C192.87135907 19.41056747 194.50008717 20.62526754 196.12890625 21.83984375 C196.85851562 22.46375 197.588125 23.08765625 198.33984375 23.73046875 C198.33984375 24.39046875 198.33984375 25.05046875 198.33984375 25.73046875 C197.63190674 25.79516357 196.92396973 25.8598584 196.19458008 25.92651367 C155.06037914 29.79706888 115.95713157 41.98523227 88.21484375 74.41796875 C87.69664062 75.06121094 87.1784375 75.70445312 86.64453125 76.3671875 C86.21398437 76.81707031 85.7834375 77.26695312 85.33984375 77.73046875 C84.67984375 77.73046875 84.01984375 77.73046875 83.33984375 77.73046875 C82.34984375 79.71046875 82.34984375 79.71046875 81.33984375 81.73046875 C80.34984375 81.73046875 79.35984375 81.73046875 78.33984375 81.73046875 C76.359375 79.60546875 76.359375 79.60546875 74.15234375 76.73046875 C51.48205347 48.23795304 16.03789078 31.64247213 -19.70068359 27.36669922 C-26.01137325 26.70557935 -32.33085635 26.1771147 -38.66015625 25.73046875 C-37.41976809 22.00930427 -36.16643658 21.43114659 -32.97265625 19.23046875 C-28.30442706 15.93524815 -23.76769384 12.52416474 -19.28515625 8.98046875 C-18.41177612 8.29114258 -18.41177612 8.29114258 -17.52075195 7.58789062 C-16.960896 7.14509766 -16.40104004 6.70230469 -15.82421875 6.24609375 C-15.28474609 5.82247559 -14.74527344 5.39885742 -14.18945312 4.96240234 C-12.77211661 3.82065904 -11.40482681 2.61753489 -10.04296875 1.41015625 C-6.46471701 -1.11221793 -4.19975396 -0.56936262 0 0 Z " fill="#141414" transform="translate(169.66015625,262.26953125)"/>
<path d="M0 0 C0 2.64 0 5.28 0 8 C0.58555664 7.98114746 1.17111328 7.96229492 1.77441406 7.94287109 C41.90298771 7.22713213 85.97561915 24.56817777 115 52 C116.68282963 53.65184033 118.34472579 55.3203387 120 57 C123.0278597 55.65442178 125.00713189 54.18120614 127.265625 51.76953125 C153.84739455 24.46036471 197.92570069 8.91102076 235.59423828 7.93261719 C237.72960886 7.93011822 239.8649745 7.96153107 242 8 C242 5.36 242 2.72 242 0 C246.85512395 2.66109958 251.26514537 5.53201547 255.625 8.9375 C256.44484375 9.56301758 256.44484375 9.56301758 257.28125 10.20117188 C260.78470335 12.91257656 263.89458682 15.84825209 267 19 C266.05084717 19.0093457 265.10169434 19.01869141 264.1237793 19.02832031 C237.14911274 19.33824602 210.94418941 20.9122705 185 29 C184.2167334 29.24057129 183.4334668 29.48114258 182.62646484 29.72900391 C155.7581013 37.15418591 155.7581013 37.15418591 134.93359375 52.96484375 C134.76988281 53.61582031 134.60617187 54.26679688 134.4375 54.9375 C133.16556499 58.99557837 131.28307869 61.22201034 128 64 C124.28763586 65.85618207 120.05156912 65.44809981 116 65 C111.53188534 62.8065619 109.09136644 60.51294863 107 56 C106.97292969 55.22140625 106.94585937 54.4428125 106.91796875 53.640625 C105.43684196 49.38002198 101.98665064 48.19480555 98.125 46.1875 C96.91312012 45.54010864 96.91312012 45.54010864 95.67675781 44.87963867 C63.52630319 28.03138479 28.68221391 19.65756878 -7.5625 20 C-10.43879781 20.02658257 -13.3150324 20.04651459 -16.19140625 20.0625 C-17.45154541 20.07410156 -18.71168457 20.08570313 -20.01000977 20.09765625 C-23 20 -23 20 -25 19 C-23.87088736 15.61266209 -23.23049974 15.17992206 -20.39453125 13.22265625 C-19.65783203 12.70896484 -18.92113281 12.19527344 -18.16210938 11.66601562 C-17.38673828 11.13685547 -16.61136719 10.60769531 -15.8125 10.0625 C-14.67844727 9.27456055 -14.67844727 9.27456055 -13.52148438 8.47070312 C-11.35500645 6.96938841 -9.17966278 5.48208838 -7 4 C-6.38817871 3.58089355 -5.77635742 3.16178711 -5.14599609 2.72998047 C-1.12255064 0 -1.12255064 0 0 0 Z " fill="#282828" transform="translate(129,291)"/>
<path d="M0 0 C19.64513008 1.00199272 41.3064331 9.59562353 56.25 22.3125 C59.20788981 24.48296522 60.38730811 25.04808468 64.0859375 24.7578125 C66.55848907 24.18470452 69.02173825 23.57060831 71.4765625 22.92578125 C76.94987691 21.63419885 82.39870039 21.62238908 88 21.625 C89.03962891 21.62290527 90.07925781 21.62081055 91.15039062 21.61865234 C97.18897523 21.69971357 102.32918197 22.41087336 108.125 24.0625 C112.4892675 25.10138014 114.31180351 25.30327303 118.45703125 23.4765625 C121.49704847 21.59015563 124.328393 19.43458346 127.18457031 17.28417969 C140.74776336 7.68998988 159.42548242 0.80317046 176 0 C176.99 0.495 176.99 0.495 178 1 C184.0152858 19.10104351 181.96428332 38.55890459 173.625 55.5 C171.52362989 59.58344846 169.48012797 62.64487203 166.25 65.875 C164.61085474 67.60798218 164.61085474 67.60798218 164 70 C164.86806775 74.35342517 166.18384505 78.26836433 167.79296875 82.390625 C169.33972196 87.01586762 169.33972196 87.01586762 168 90 C165.99731445 91.30517578 165.99731445 91.30517578 163.36328125 92.4453125 C161.91852417 93.09306641 161.91852417 93.09306641 160.44458008 93.75390625 C159.41099365 94.20636719 158.37740723 94.65882813 157.3125 95.125 C142.45712633 101.93794629 130.6001107 110.53945749 119 122 C118.08605469 122.88945312 117.17210937 123.77890625 116.23046875 124.6953125 C109.73749263 131.36477867 104.84729835 138.55437045 100.14648438 146.58984375 C95.61130096 154.20046792 95.61130096 154.20046792 91 156 C88.18781234 156.28802667 85.69052863 155.85377944 83 155 C80.5 152.9375 80.5 152.9375 79 151 C79.33 150.34 79.66 149.68 80 149 C80.495 149.66 80.99 150.32 81.5 151 C84.55253353 153.44202682 86.21905488 153.47217273 90 153.53125 C95.42536109 152.09013846 98.01199897 145.93308054 100.6875 141.4375 C106.35878382 132.16247832 112.47270463 123.70940875 120.92578125 116.734375 C123.25286094 114.78856826 125.42172518 112.7096646 127.625 110.625 C136.7116233 102.4912293 154.23638427 89 167 89 C166.56766547 87.33198595 166.12880988 85.66566192 165.6875 84 C165.44386719 83.071875 165.20023438 82.14375 164.94921875 81.1875 C164.14001516 78.15708187 164.14001516 78.15708187 163.06689453 76.07495117 C162.0995498 74.01370945 161.37513934 72.24862446 161 70 C162.40149264 67.23842245 163.51764681 65.5744498 165.5 63.3125 C170.54475273 56.94797931 173.65638019 50.83935709 176 43 C176.24363281 42.21882813 176.48726562 41.43765625 176.73828125 40.6328125 C179.72969263 28.87066434 178.93622513 14.66625162 176 3 C156.95093102 3.44394017 130.7360859 13.2639141 117 27 C111.49192997 26.86788762 106.0725627 26.05772107 100.6875 24.9375 C89.92653761 22.92268151 79.91665917 23.89008795 69.375 26.34375 C64.42286512 27.30666512 61.44066496 27.78780666 56.9140625 25.3125 C55.81066938 24.55177659 54.71464879 23.78028328 53.625 23 C37.53045335 12.13897969 19.42602585 4.20923431 0 2 C-4.27477222 21.46548065 -2.94023929 40.20790402 6.92578125 57.7421875 C7.28027344 58.48726562 7.63476562 59.23234375 8 60 C7.67 60.66 7.34 61.32 7 62 C-3.51836864 46.15232459 -6.48838561 28.6728456 -4 10 C-2.13080895 2.13080895 -2.13080895 2.13080895 0 0 Z " fill="#B0B0B0" transform="translate(162,143)"/>
<path d="M0 0 C0 2.64 0 5.28 0 8 C0.58555664 7.98114746 1.17111328 7.96229492 1.77441406 7.94287109 C31.99939841 7.40377396 65.61429909 17.89702678 91 34 C90.01 34.495 90.01 34.495 89 35 C86.54260023 33.88189826 84.19224523 32.70374816 81.8125 31.4375 C55.17922349 17.79244114 27.42514241 12.63509562 -2 9 C-1.67 7.02 -1.34 5.04 -1 3 C-7.82851569 7.4511806 -14.43723889 12.16686378 -21 17 C-19.96782349 16.98428955 -19.96782349 16.98428955 -18.91479492 16.96826172 C18.30880109 16.47892582 57.1168271 21.09673425 90 40 C89.01 40.495 89.01 40.495 88 41 C85.20303817 39.90075736 82.48752042 38.73314446 79.75 37.5 C51.78266871 25.40940105 22.85750544 19.71259921 -7.5625 20 C-10.43879781 20.02658257 -13.3150324 20.04651459 -16.19140625 20.0625 C-17.45154541 20.07410156 -18.71168457 20.08570313 -20.01000977 20.09765625 C-23 20 -23 20 -25 19 C-23.87088736 15.61266209 -23.23049974 15.17992206 -20.39453125 13.22265625 C-19.65783203 12.70896484 -18.92113281 12.19527344 -18.16210938 11.66601562 C-17.38673828 11.13685547 -16.61136719 10.60769531 -15.8125 10.0625 C-14.67844727 9.27456055 -14.67844727 9.27456055 -13.52148438 8.47070312 C-11.35500645 6.96938841 -9.17966278 5.48208838 -7 4 C-6.38817871 3.58089355 -5.77635742 3.16178711 -5.14599609 2.72998047 C-1.12255064 0 -1.12255064 0 0 0 Z " fill="#B2B2B2" transform="translate(129,291)"/>
<path d="M0 0 C0.53625 0.226875 1.0725 0.45375 1.625 0.6875 C5.06501166 21.9054919 0.5010806 37.32605481 -11.375 54.6875 C-14.02944413 54.32940582 -15.10921158 54.01314425 -16.83203125 51.90234375 C-17.27933594 51.15082031 -17.72664063 50.39929688 -18.1875 49.625 C-23.15211807 41.5265012 -23.15211807 41.5265012 -30.375 35.6875 C-30.375 35.0275 -30.375 34.3675 -30.375 33.6875 C-31.014375 33.44 -31.65375 33.1925 -32.3125 32.9375 C-34.375 31.6875 -34.375 31.6875 -35.2109375 29.93359375 C-35.58369954 24.83030385 -30.48752729 20.36187327 -27.375 16.6875 C-21.67144876 10.75617115 -15.74240076 6.3075664 -8.375 2.6875 C-6.7353125 1.759375 -6.7353125 1.759375 -5.0625 0.8125 C-2.375 -0.3125 -2.375 -0.3125 0 0 Z M-24.375 15.6875 C-30.73391203 21.6108783 -30.73391203 21.6108783 -33.3359375 29.3203125 C-32.21819461 32.07377668 -31.16234367 33.08617576 -28.8125 34.875 C-24.64795854 38.28439121 -21.48925426 42.08512096 -18.234375 46.35546875 C-16.41368049 48.63898686 -14.47757772 50.66400153 -12.375 52.6875 C-5.15534241 43.65772653 0.74002012 32.10555415 0.7578125 20.28125 C0.75910156 19.45496094 0.76039063 18.62867188 0.76171875 17.77734375 C0.75591797 16.49537109 0.75591797 16.49537109 0.75 15.1875 C0.75386719 14.33285156 0.75773437 13.47820312 0.76171875 12.59765625 C0.76042969 11.77136719 0.75914062 10.94507813 0.7578125 10.09375 C0.75612061 8.96936523 0.75612061 8.96936523 0.75439453 7.82226562 C0.62357747 5.66403095 0.21666841 3.76274609 -0.375 1.6875 C-8.81983528 1.6875 -18.54340946 10.15884923 -24.375 15.6875 Z " fill="#A3A3A3" transform="translate(334.375,152.3125)"/>
<path d="M0 0 C14.66143375 3.96254966 26.69966014 14.54949021 35 27 C34.875 29.5625 34.875 29.5625 34 32 C31.9375 33.3125 31.9375 33.3125 30 34 C30.53625 33.443125 31.0725 32.88625 31.625 32.3125 C32.07875 31.549375 32.5325 30.78625 33 30 C30.12326045 19.90617702 19.58158428 12.20168656 11 7 C7.7268848 5.45095885 4.43811018 4.13360683 1 3 C-1.39300702 19.15279738 0.7998497 35.7562951 10.65234375 49.265625 C11.31943359 50.12414062 11.31943359 50.12414062 12 51 C11.67 51.66 11.34 52.32 11 53 C1.59880052 42.25577202 -2.17798575 28.52400075 -2.1875 14.5 C-2.19974609 13.54996094 -2.21199219 12.59992188 -2.22460938 11.62109375 C-2.22654297 10.70457031 -2.22847656 9.78804687 -2.23046875 8.84375 C-2.23457764 8.01037109 -2.23868652 7.17699219 -2.24291992 6.31835938 C-1.97926986 3.80215739 -1.26216419 2.17353616 0 0 Z " fill="#BEBEBE" transform="translate(166,152)"/>
<path d="M0 0 C0.33 0 0.66 0 1 0 C1.7710598 17.3060089 -0.91296698 32.03539669 -10 47 C-11.23115811 48.30963831 -12.47899591 49.60399591 -13.75 50.875 C-15.38914526 52.60798218 -15.38914526 52.60798218 -16 55 C-15.13193225 59.35342517 -13.81615495 63.26836433 -12.20703125 67.390625 C-10.70843486 71.8718647 -10.70843486 71.8718647 -12 75 C-14.49015086 76.44646308 -16.81129001 77.61997797 -19.4375 78.75 C-20.13166016 79.06582031 -20.82582031 79.38164062 -21.54101562 79.70703125 C-26.66793493 82 -26.66793493 82 -29 82 C-29 81.34 -29 80.68 -29 80 C-26.7101766 78.9955866 -24.4183401 77.99632388 -22.125 77 C-21.47402344 76.71382813 -20.82304687 76.42765625 -20.15234375 76.1328125 C-15.2265625 74 -15.2265625 74 -13 74 C-13.43233453 72.33198595 -13.87119012 70.66566192 -14.3125 69 C-14.55613281 68.071875 -14.79976563 67.14375 -15.05078125 66.1875 C-15.85998484 63.15708187 -15.85998484 63.15708187 -16.93310547 61.07495117 C-17.9004502 59.01370945 -18.62486066 57.24862446 -19 55 C-17.59837163 52.23815501 -16.48183029 50.57513097 -14.5 48.3125 C-3.47346128 34.33803072 -0.85351974 17.45300714 0 0 Z " fill="#AAAAAA" transform="translate(342,158)"/>
<path d="M0 0 C1.75570313 0.01353516 1.75570313 0.01353516 3.546875 0.02734375 C4.43890625 0.03894531 5.3309375 0.05054688 6.25 0.0625 C6.25 1.0525 6.25 2.0425 6.25 3.0625 C-2.03882377 10.5048056 -14.40691488 17.60264691 -25.75 17.0625 C-26.75 14.0625 -26.75 14.0625 -25.88671875 12.1953125 C-19.44086631 3.26494012 -10.76961117 -0.10769611 0 0 Z M-22.75 11.0625 C-23.41 11.7225 -24.07 12.3825 -24.75 13.0625 C-24.75 14.0525 -24.75 15.0425 -24.75 16.0625 C-14.02905653 14.0342134 -3.28385942 10.30265875 4.25 2.0625 C3.16742446 0.75575115 3.16742446 0.75575115 0.5546875 0.93359375 C-9.16044203 1.3125527 -16.09268217 3.97843103 -22.75 11.0625 Z " fill="#A1A1A1" transform="translate(293.75,223.9375)"/>
<path d="M0 0 C0.66 0.33 1.32 0.66 2 1 C1.16976318 1.79096069 1.16976318 1.79096069 0.32275391 2.59790039 C-10.49216002 12.96828872 -20.4916456 22.95917393 -28 36 C-31.18128948 34.66891653 -32.57381293 33.57630376 -34.125 30.5 C-35.7546682 27.05240547 -35.7546682 27.05240547 -38 25 C-38.625 22.875 -38.625 22.875 -39 21 C-36.01044859 23.74042213 -33.76271768 26.18073368 -31.8125 29.75 C-30.37321065 33.04811835 -30.37321065 33.04811835 -28 34 C-27.62681641 32.93458984 -27.62681641 32.93458984 -27.24609375 31.84765625 C-25.85955252 28.67904009 -24.13061563 26.20654123 -22.0625 23.4375 C-21.37285156 22.50808594 -20.68320312 21.57867187 -19.97265625 20.62109375 C-19.32167969 19.75613281 -18.67070312 18.89117187 -18 18 C-17.46246094 17.22785156 -16.92492187 16.45570313 -16.37109375 15.66015625 C-15.91863281 15.11230469 -15.46617187 14.56445312 -15 14 C-14.34 14 -13.68 14 -13 14 C-12.78601563 13.44828125 -12.57203125 12.8965625 -12.3515625 12.328125 C-10.546489 9.21880764 -8.05199936 7.08727863 -5.375 4.75 C-4.859375 4.29109375 -4.34375 3.8321875 -3.8125 3.359375 C-2.5465398 2.23407704 -1.27392058 1.11627823 0 0 Z " fill="#A8A8A8" transform="translate(279,287)"/>
<path d="M0 0 C0 2.64 0 5.28 0 8 C3.3 8 6.6 8 10 8 C10 8.33 10 8.66 10 9 C6.04 9 2.08 9 -2 9 C-1.67 7.02 -1.34 5.04 -1 3 C-7.83056843 7.45251868 -14.42761886 12.17470752 -21 17 C-13.08 17.33 -5.16 17.66 3 18 C3 18.33 3 18.66 3 19 C-1.29131609 19.19619224 -5.58306102 19.38048583 -9.875 19.5625 C-11.09832031 19.61857422 -12.32164063 19.67464844 -13.58203125 19.73242188 C-15.33193359 19.80493164 -15.33193359 19.80493164 -17.1171875 19.87890625 C-18.19597168 19.9260376 -19.27475586 19.97316895 -20.38623047 20.02172852 C-23 20 -23 20 -25 19 C-23.87088736 15.61266209 -23.23049974 15.17992206 -20.39453125 13.22265625 C-19.65783203 12.70896484 -18.92113281 12.19527344 -18.16210938 11.66601562 C-17.38673828 11.13685547 -16.61136719 10.60769531 -15.8125 10.0625 C-14.67844727 9.27456055 -14.67844727 9.27456055 -13.52148438 8.47070312 C-11.35500645 6.96938841 -9.17966278 5.48208838 -7 4 C-6.38817871 3.58089355 -5.77635742 3.16178711 -5.14599609 2.72998047 C-1.12255064 0 -1.12255064 0 0 0 Z " fill="#C8C8C8" transform="translate(129,291)"/>
<path d="M0 0 C0.53625 0.226875 1.0725 0.45375 1.625 0.6875 C2.49309439 5.88923095 2.75015348 10.85728816 2.6875 16.125 C2.68298828 16.85654297 2.67847656 17.58808594 2.67382812 18.34179688 C2.66218148 20.12373419 2.64425191 21.90562863 2.625 23.6875 C1.965 23.6875 1.305 23.6875 0.625 23.6875 C0.295 16.4275 -0.035 9.1675 -0.375 1.6875 C-3.6853125 3.3271875 -3.6853125 3.3271875 -7.0625 5 C-8.09056763 5.50720581 -8.09056763 5.50720581 -9.1394043 6.0246582 C-12.64902075 7.77158365 -16.04536596 9.61841575 -19.375 11.6875 C-17.95761347 8.13649438 -16.49727352 6.86275319 -13.125 5.125 C-11.92037109 4.50044922 -11.92037109 4.50044922 -10.69140625 3.86328125 C-9.92699219 3.47527344 -9.16257812 3.08726562 -8.375 2.6875 C-6.7353125 1.759375 -6.7353125 1.759375 -5.0625 0.8125 C-2.375 -0.3125 -2.375 -0.3125 0 0 Z " fill="#B1B1B1" transform="translate(334.375,152.3125)"/>
<path d="M0 0 C1.58721082 3.96802705 0.49685537 7.20080655 -1 11 C-6.29238329 22.64619165 -6.29238329 22.64619165 -9 24 C-8.7215625 23.319375 -8.443125 22.63875 -8.15625 21.9375 C-6.86195609 18.64929386 -5.6775995 15.33174493 -4.5 12 C-3.07408956 7.9657168 -1.62022111 3.96054048 0 0 Z " fill="#A8A8A8" transform="translate(335,176)"/>
<path d="M0 0 C0.66 0.33 1.32 0.66 2 1 C-3.28 6.28 -8.56 11.56 -14 17 C-14.33 16.01 -14.66 15.02 -15 14 C-14.34 14 -13.68 14 -13 14 C-12.67902344 13.17242187 -12.67902344 13.17242187 -12.3515625 12.328125 C-10.546489 9.21880764 -8.05199936 7.08727863 -5.375 4.75 C-4.859375 4.29109375 -4.34375 3.8321875 -3.8125 3.359375 C-2.5465398 2.23407704 -1.27392058 1.11627823 0 0 Z " fill="#7E7E7E" transform="translate(279,287)"/>
<path d="M0 0 C0.33 0 0.66 0 1 0 C1.38297872 18.34042553 1.38297872 18.34042553 -1 27 C-1.66 27 -2.32 27 -3 27 C-2 18 -1 9 0 0 Z " fill="#C5C5C5" transform="translate(342,158)"/>
<path d="M0 0 C4.29 0 8.58 0 13 0 C13 0.99 13 1.98 13 3 C10.8125 4.82421875 10.8125 4.82421875 8 6.6875 C7.071875 7.31011719 6.14375 7.93273437 5.1875 8.57421875 C4.1046875 9.27998047 4.1046875 9.27998047 3 10 C2.67 9.34 2.34 8.68 2 8 C4.64 6.02 7.28 4.04 10 2 C6.7 1.67 3.4 1.34 0 1 C0 0.67 0 0.34 0 0 Z " fill="#969696" transform="translate(287,224)"/>
<path d="M0 0 C4.55015893 1.51671964 6.50057264 5.16891053 9 9 C10.32 7.68 11.64 6.36 13 5 C13.66 5.33 14.32 5.66 15 6 C13.02 8.97 13.02 8.97 11 12 C8.16905053 11.64996937 7.19401662 11.23218382 5.33203125 9.00390625 C4.83058594 8.19824219 4.32914062 7.39257812 3.8125 6.5625 C3.30332031 5.75941406 2.79414063 4.95632812 2.26953125 4.12890625 C1 2 1 2 0 0 Z " fill="#9D9D9D" transform="translate(312,195)"/>
<path d="M0 0 C0.53109375 0.24621094 1.0621875 0.49242187 1.609375 0.74609375 C-0.48741604 2.11304597 -2.5917188 3.46456366 -4.703125 4.80859375 C-5.29802734 5.19853516 -5.89292969 5.58847656 -6.50585938 5.99023438 C-8.08672135 6.9882087 -9.73657212 7.87478071 -11.390625 8.74609375 C-12.380625 8.41609375 -13.370625 8.08609375 -14.390625 7.74609375 C-12.4848257 6.37667507 -10.56555927 5.02598212 -8.640625 3.68359375 C-7.57328125 2.92949219 -6.5059375 2.17539063 -5.40625 1.3984375 C-2.390625 -0.25390625 -2.390625 -0.25390625 0 0 Z " fill="#A6A6A6" transform="translate(291.390625,160.25390625)"/>
<path d="M0 0 C0.99 0.33 1.98 0.66 3 1 C-1.455 3.97 -1.455 3.97 -6 7 C-6 6.01 -6 5.02 -6 4 C-3.1875 1.75 -3.1875 1.75 0 0 Z " fill="#B8B8B8" transform="translate(322,157)"/>
</svg>
